<svg xmlns="http://www.w3.org/2000/svg" width="32" height="32" viewBox="0 0 24 24" fill="#0A66C2">
  <path d="M22.23 0H1.77C.79 0 0 .774 0 1.728v20.543C0 23.226.79 24 1.77 24h20.46C23.21 24 24 23.226 24 22.271V1.728C24 .774 23.21 0 22.23 0zM7.09 20.452H3.56V9h3.53v11.452zM5.326 7.56c-1.135 0-2.057-.934-2.057-2.083 0-1.15.922-2.083 2.057-2.083 1.136 0 2.058.933 2.058 2.083 0 1.15-.922 2.083-2.058 2.083zM20.452 20.452h-3.526v-5.604c0-1.337-.026-3.06-1.867-3.06-1.87 0-2.156 1.46-2.156 2.967v5.696h-3.526V9h3.386v1.561h.049c.471-.89 1.623-1.828 3.34-1.828 3.57 0 4.227 2.351 4.227 5.409v6.31z"></path>
</svg>
