<svg xmlns="http://www.w3.org/2000/svg" width="32" height="32" viewBox="0 0 24 24" fill="#E1306C">
  <path d="M12 2.163c3.204 0 3.584.012 4.85.07 1.366.062 2.633.343 3.608 1.318.975.975 1.256 2.242 1.318 3.608.058 1.266.07 1.645.07 4.85s-.012 3.584-.07 4.85c-.062 1.366-.343 2.633-1.318 3.608-.975.975-2.242 1.256-3.608 1.318-1.266.058-1.645.07-4.85.07s-3.584-.012-4.85-.07c-1.366-.062-2.633-.343-3.608-1.318-.975-.975-1.256-2.242-1.318-3.608C2.175 15.584 2.163 15.204 2.163 12s.012-3.584.07-4.85c.062-1.366.343-2.633 1.318-3.608C4.526 2.576 5.793 2.295 7.159 2.233 8.425 2.175 8.805 2.163 12 2.163zm0-2.163C8.756 0 8.331.013 7.052.072 5.773.131 4.533.41 3.508 1.435 2.483 2.46 2.204 3.7 2.145 4.979.986 6.293.999 7.623 1 12s-.014 5.707.072 7.021c.059 1.279.338 2.519 1.363 3.544 1.025 1.025 2.265 1.304 3.544 1.363 1.314.086 1.744.072 5.021.072s3.707.014 5.021-.072c1.279-.059 2.519-.338 3.544-1.363 1.025-1.025 1.304-2.265 1.363-3.544.086-1.314.072-1.744.072-5.021s.014-3.707-.072-5.021c-.059-1.279-.338-2.519-1.363-3.544C19.486.41 18.246.131 16.967.072 15.688.013 15.263 0 12 0zM12 5.838a6.162 6.162 0 1 0 0 12.324 6.162 6.162 0 0 0 0-12.324zm0 10.162a3.999 3.999 0 1 1 0-7.998 3.999 3.999 0 0 1 0 7.998zm6.406-11.845a1.44 1.44 0 1 0 0 2.88 1.44 1.44 0 0 0 0-2.88z"></path>
</svg>
